<svg width="445" height="447" viewBox="0 0 445 447" fill="none" xmlns="http://www.w3.org/2000/svg">
<g clip-path="url(#clip0_90_1011)">
<path d="M287.172 0.542481L418.781 0.56935C431.139 0.56935 441.155 10.589 441.153 22.9413L441.094 320.34C441.092 332.695 431.071 342.708 418.715 342.705L287.107 342.678C274.748 342.676 264.732 332.659 264.734 320.306L264.793 22.9071C264.793 10.5523 274.816 0.540038 287.172 0.542481Z" fill="#13536C"/>
<path d="M444.997 38.9673H433.98V68.1322H444.997V38.9673Z" fill="#13536C"/>
<path d="M439.268 39.5022H433.98V67.6021H439.268V39.5022Z" fill="white"/>
<path d="M439.262 68.1442H433.975C433.677 68.1442 433.436 67.8999 433.436 67.6019L433.44 39.502C433.44 39.3579 433.497 39.2211 433.599 39.1185C433.702 39.0159 433.838 38.9597 433.982 38.9597H439.27C439.414 38.9597 439.55 39.0183 439.653 39.1185C439.755 39.2186 439.811 39.3579 439.811 39.502L439.806 67.6019C439.806 67.8999 439.565 68.1417 439.267 68.1417L439.262 68.1442ZM434.516 67.0621H438.723L438.728 40.0442H434.521L434.516 67.0621Z" fill="#13536C"/>
<path d="M275.421 0.54004L407.029 0.566908C419.387 0.569351 429.403 10.5865 429.401 22.9389L429.342 320.338C429.342 332.693 419.319 342.705 406.963 342.703L275.355 342.676C262.996 342.673 252.98 332.656 252.982 320.304L253.041 22.9047C253.043 10.5499 263.064 0.537597 275.421 0.54004Z" fill="#DFE3E8"/>
<path d="M253.77 291.665V46.6758H428.927V291.665H253.77Z" fill="#BAD3DA" stroke="#13536C"/>
<mask id="path-7-inside-1_90_1011" fill="white">
<path d="M429.402 292.722L253.245 292.688C253.101 292.688 252.964 292.631 252.862 292.529C252.759 292.426 252.703 292.289 252.703 292.145L252.752 46.156C252.752 46.0119 252.808 45.8751 252.911 45.7725C253.013 45.6699 253.15 45.6138 253.294 45.6138L429.451 45.648C429.749 45.648 429.99 45.8898 429.99 46.1878L429.941 292.177C429.941 292.475 429.7 292.717 429.402 292.717V292.722ZM253.784 291.608L428.86 291.642L428.909 46.7349L253.833 46.7007L253.784 291.608Z"/>
</mask>
<path d="M429.402 292.722L253.245 292.688C253.101 292.688 252.964 292.631 252.862 292.529C252.759 292.426 252.703 292.289 252.703 292.145L252.752 46.156C252.752 46.0119 252.808 45.8751 252.911 45.7725C253.013 45.6699 253.15 45.6138 253.294 45.6138L429.451 45.648C429.749 45.648 429.99 45.8898 429.99 46.1878L429.941 292.177C429.941 292.475 429.7 292.717 429.402 292.717V292.722ZM253.784 291.608L428.86 291.642L428.909 46.7349L253.833 46.7007L253.784 291.608Z" fill="#BAD3DA"/>
<path d="M429.402 292.722L429.402 293.722L430.402 293.722V292.722H429.402ZM253.245 292.688L253.245 291.688H253.245V292.688ZM252.703 292.145L251.703 292.145V292.145H252.703ZM252.752 46.156L253.752 46.1562V46.156H252.752ZM253.294 45.6138L253.294 44.6138H253.294V45.6138ZM429.451 45.648L429.451 46.648H429.451V45.648ZM429.99 46.1878L430.99 46.188V46.1878H429.99ZM429.941 292.177L428.941 292.177V292.177H429.941ZM429.402 292.717V291.717H428.402V292.717H429.402ZM253.784 291.608L252.784 291.608L252.784 292.608L253.784 292.608L253.784 291.608ZM428.86 291.642L428.86 292.642L429.86 292.642L429.86 291.642L428.86 291.642ZM428.909 46.7349L429.909 46.7351L429.909 45.7351L428.909 45.7349L428.909 46.7349ZM253.833 46.7007L253.833 45.7007L252.833 45.7005L252.833 46.7005L253.833 46.7007ZM429.402 291.722L253.245 291.688L253.245 293.688L429.402 293.722L429.402 291.722ZM253.245 291.688C253.365 291.688 253.483 291.736 253.569 291.822L252.154 293.235C252.445 293.527 252.837 293.688 253.245 293.688V291.688ZM253.569 291.822C253.655 291.908 253.703 292.026 253.703 292.145H251.703C251.703 292.553 251.863 292.944 252.154 293.235L253.569 291.822ZM253.703 292.145L253.752 46.1562L251.752 46.1558L251.703 292.145L253.703 292.145ZM253.752 46.156C253.752 46.2755 253.704 46.3933 253.618 46.4793L252.203 45.0658C251.912 45.3569 251.752 45.7483 251.752 46.156H253.752ZM253.618 46.4793C253.532 46.5652 253.414 46.6138 253.294 46.6138V44.6138C252.885 44.6138 252.494 44.7746 252.203 45.0658L253.618 46.4793ZM253.293 46.6138L429.451 46.648L429.451 44.648L253.294 44.6138L253.293 46.6138ZM429.451 46.648C429.195 46.648 428.99 46.441 428.99 46.1878H430.99C430.99 45.3385 430.302 44.648 429.451 44.648V46.648ZM428.99 46.1876L428.941 292.177L430.941 292.177L430.99 46.188L428.99 46.1876ZM428.941 292.177C428.941 291.924 429.146 291.717 429.402 291.717V293.717C430.253 293.717 430.941 293.026 430.941 292.177H428.941ZM428.402 292.717V292.722H430.402V292.717H428.402ZM253.784 292.608L428.86 292.642L428.861 290.642L253.784 290.608L253.784 292.608ZM429.86 291.642L429.909 46.7351L427.909 46.7347L427.86 291.642L429.86 291.642ZM428.909 45.7349L253.833 45.7007L253.833 47.7007L428.909 47.7349L428.909 45.7349ZM252.833 46.7005L252.784 291.608L254.784 291.608L254.833 46.7009L252.833 46.7005Z" fill="#13536C" mask="url(#path-7-inside-1_90_1011)"/>
<path d="M407.186 343.245H407.182L275.203 343.218C262.244 343.215 252.474 332.763 252.477 318.909L252.535 21.1385C252.538 9.87797 263.159 0 275.266 0H275.271L407.25 0.0268689C413.233 0.0268689 418.937 2.31805 423.31 6.47784C427.546 10.5057 429.976 15.8624 429.973 21.1727L429.915 318.943C429.915 325.694 427.553 331.887 423.263 336.383C419.045 340.807 413.335 343.242 407.184 343.242L407.186 343.245ZM275.266 1.08208C263.735 1.08208 253.618 10.4544 253.616 21.1385L253.557 318.909C253.555 332.148 262.861 342.133 275.203 342.136L407.182 342.163H407.186C413.04 342.163 418.471 339.845 422.483 335.638C426.579 331.344 428.834 325.416 428.836 318.943L428.895 21.1727C428.895 16.158 426.589 11.0871 422.566 7.26192C418.393 3.2951 412.955 1.10895 407.247 1.10895L275.268 1.08208H275.264H275.266Z" fill="#13536C"/>
<path d="M347.179 11.6978L309.418 11.6905C309.12 11.6905 308.879 11.4487 308.879 11.1507C308.879 10.8527 309.12 10.6108 309.418 10.6108L347.179 10.6182C347.477 10.6182 347.719 10.86 347.719 11.158C347.719 11.456 347.477 11.6978 347.179 11.6978Z" fill="#13536C"/>
<path d="M353.859 14.4774C352.029 14.4774 350.541 12.9874 350.541 11.1603C350.541 9.33082 352.029 7.84326 353.859 7.84326C354.745 7.84326 355.58 8.18767 356.204 8.81543C356.831 9.44318 357.175 10.2761 357.175 11.1628C357.175 12.0495 356.829 12.8824 356.202 13.5077C355.575 14.133 354.743 14.4799 353.857 14.4799L353.859 14.4774ZM353.857 8.9229C352.622 8.9229 351.619 9.92682 351.619 11.1579C351.619 12.3914 352.622 13.3953 353.857 13.3953C354.455 13.3953 355.016 13.1633 355.438 12.7407C355.86 12.3181 356.092 11.7563 356.092 11.1603C356.092 10.5643 355.86 10.0001 355.438 9.57997C355.016 9.15739 354.452 8.92534 353.855 8.92534L353.857 8.9229Z" fill="#13536C"/>
<mask id="mask0_90_1011" style="mask-type:luminance" maskUnits="userSpaceOnUse" x="253" y="50" width="176" height="242">
<path d="M428.157 50H253V292H428.157V50Z" fill="white"/>
</mask>
<g mask="url(#mask0_90_1011)">
<path d="M380.165 259.522L344.918 236.006L315.924 317.622C312.954 325.984 313.75 335.205 318.112 342.945L352.612 404.154L344.841 419.161L383.273 395.023L347.704 324.009L380.168 259.522H380.165Z" fill="#13536C"/>
<path d="M362.319 245.926L343.381 213.752L271.034 262.242C263.622 267.209 258.721 275.091 257.576 283.881L247.034 412.308L276.973 373.372L292.733 286.109L362.319 245.923V245.926Z" fill="#13536C"/>
<path d="M275.966 143.211L282.431 124.568L342.684 144.552L328.906 170.232L281.534 154.24C276.883 152.697 274.391 147.76 275.968 143.211H275.966Z" fill="#58C2D9"/>
<path d="M333.36 171.958C333.301 171.958 333.243 171.948 333.187 171.929C332.906 171.837 332.756 171.538 332.85 171.263L341.999 144.882L282.765 125.235L276.474 143.38C274.994 147.646 277.34 152.297 281.702 153.742L318.885 166.073C319.167 166.166 319.317 166.465 319.223 166.74C319.128 167.015 318.822 167.162 318.541 167.07L281.358 154.738C276.435 153.104 273.786 147.857 275.457 143.043L281.923 124.4C282.018 124.127 282.323 123.977 282.605 124.07L342.858 144.054C343.139 144.146 343.29 144.445 343.195 144.72L333.874 171.6C333.799 171.818 333.59 171.955 333.364 171.955L333.36 171.958Z" fill="#13536C"/>
<path d="M325.334 51.64L324.926 51.4739C323.74 50.9898 322.369 51.4336 321.714 52.5156L321.071 53.5738C321.852 52.1596 321.224 50.3777 319.688 49.7512C318.403 49.2268 316.915 49.7085 316.204 50.8807L310.348 60.5309C309.547 61.8502 309.033 63.3142 308.834 64.8351L308.531 67.03L308.494 67.011L308.795 64.7023C308.999 63.1433 309.533 61.6414 310.362 60.2936L313.817 54.727C314.669 53.3555 314.072 51.5664 312.558 50.9495L312.34 50.8617C311.11 50.361 309.688 50.819 309.006 51.9413L304.794 58.8652C304.108 59.997 303.632 61.238 303.385 62.5312C303.411 61.9878 303.477 61.4444 303.586 60.9058L304.891 54.5182C305.214 52.945 304.028 51.462 302.39 51.3885L302.155 51.3766C300.823 51.3149 299.648 52.2213 299.399 53.5026L297.856 61.4183C297.564 62.925 297.591 64.4721 297.933 65.9693L301.33 80.759L297.407 93.3942L309.13 100.999L320.188 91.8116C321.901 90.3879 323.364 88.7008 324.519 86.8168L331.091 76.087C331.948 74.687 331.484 72.8718 330.053 72.0342L329.817 71.8966C328.386 71.059 326.53 71.5122 325.674 72.9122L319.288 83.3359L318.618 82.1305C318.325 81.6037 318.172 81.0177 318.16 80.4221L319.708 68.5486C319.943 66.7381 320.564 64.9965 321.527 63.4328L326.552 55.2775C327.365 53.9582 326.79 52.2379 325.334 51.6447V51.64ZM320.499 54.5158L315.758 62.3247C315.406 62.9037 315.113 63.5135 314.875 64.1423C315.139 63.383 315.486 62.6498 315.911 61.9593L320.496 54.5158H320.499Z" fill="#BAD3DA"/>
<path d="M319.234 83.8082C319.045 83.8082 318.858 83.7085 318.761 83.5329L318.627 83.2909C317.895 81.9716 317.611 80.4839 317.805 78.9938L319.178 68.4728C319.426 66.5769 320.061 64.7878 321.071 63.1529L326.095 54.9976C326.401 54.4993 326.471 53.8966 326.287 53.3438C326.102 52.7909 325.68 52.3448 325.132 52.1218L324.724 51.9557C323.793 51.576 322.696 51.9296 322.179 52.7814L316.226 62.5906C315.459 63.8529 314.974 65.2339 314.782 66.6932L313.913 73.318C313.877 73.6051 313.61 73.8068 313.312 73.7736C313.018 73.7356 312.81 73.4746 312.846 73.1852L313.714 66.5603C313.926 64.9586 314.459 63.4424 315.301 62.0567L321.255 52.2475C322.043 50.9496 323.713 50.4086 325.137 50.9899L325.544 51.156C326.381 51.4977 327.024 52.1763 327.308 53.0211C327.592 53.8658 327.485 54.7841 327.017 55.5457L321.992 63.7011C321.063 65.2102 320.476 66.8616 320.246 68.6128L318.872 79.1314C318.707 80.4032 318.95 81.6703 319.574 82.795L319.707 83.037C319.848 83.2909 319.753 83.6112 319.491 83.7489C319.409 83.7916 319.321 83.8129 319.236 83.8129L319.234 83.8082Z" fill="#13536C"/>
<path d="M308.088 71.0305C308.066 71.0305 308.042 71.0305 308.02 71.0258C307.726 70.9878 307.518 70.7268 307.554 70.4373L308.296 64.7639C308.505 63.1623 309.039 61.6485 309.883 60.2604L315.74 50.6102C316.584 49.2221 318.37 48.6431 319.891 49.2648C320.759 49.6183 321.439 50.3183 321.752 51.1868C322.065 52.0552 321.989 53.0162 321.543 53.8253C321.402 54.0792 321.077 54.1741 320.815 54.0389C320.553 53.9013 320.456 53.5809 320.597 53.327C320.9 52.7789 320.951 52.1288 320.738 51.5379C320.522 50.94 320.073 50.4773 319.476 50.2353C318.442 49.8153 317.232 50.2044 316.662 51.1488L310.805 60.799C310.038 62.0637 309.551 63.4423 309.361 64.9016L308.619 70.5749C308.585 70.8407 308.352 71.0329 308.088 71.0329V71.0305Z" fill="#13536C"/>
<path d="M309.129 101.519C309.025 101.519 308.923 101.49 308.833 101.431L297.11 93.826C296.916 93.7002 296.826 93.463 296.892 93.2423L300.686 80.3437L297.411 66.0761C297.05 64.5005 297.023 62.8989 297.329 61.3115L298.872 53.3958C299.17 51.8677 300.601 50.7833 302.181 50.8427L302.416 50.8545C303.353 50.8972 304.221 51.3362 304.799 52.0599C305.376 52.7836 305.602 53.7137 305.42 54.613L304.032 62.0708C303.979 62.3579 303.7 62.5501 303.408 62.4931C303.117 62.4409 302.923 62.168 302.977 61.8833L304.364 54.4161C304.488 53.8087 304.338 53.187 303.954 52.7077C303.569 52.226 302.991 51.9341 302.368 51.9057L302.132 51.8938C301.084 51.8487 300.128 52.5772 299.929 53.5927L298.386 61.506C298.107 62.9487 298.132 64.408 298.462 65.8435L301.768 80.2417C301.788 80.3271 301.785 80.4173 301.761 80.5027L298.037 93.1592L309.095 100.332L319.846 91.401C321.517 90.0129 322.936 88.3757 324.062 86.5367L330.635 75.8069C330.974 75.2493 331.074 74.5968 330.914 73.968C330.753 73.3392 330.351 72.8077 329.781 72.4755L329.543 72.3355C328.369 71.6474 326.84 72.0223 326.136 73.1707L317.922 86.5818C317.771 86.831 317.441 86.9116 317.184 86.7622C316.929 86.6127 316.847 86.29 317 86.0408L325.215 72.6297C326.221 70.983 328.41 70.4468 330.096 71.4315L330.331 71.5715C331.146 72.0484 331.721 72.8077 331.952 73.7094C332.182 74.611 332.042 75.5459 331.552 76.3432L324.979 87.073C323.793 89.0116 322.298 90.7342 320.537 92.1982L309.479 101.386C309.379 101.469 309.255 101.511 309.132 101.511L309.129 101.519Z" fill="#13536C"/>
<path d="M302.758 68.6462C302.739 68.6462 302.722 68.6462 302.702 68.6438C302.406 68.6129 302.193 68.3567 302.222 68.0672L302.744 63.108C302.955 61.4945 303.488 59.9807 304.33 58.5902L308.544 51.664C309.357 50.3281 311.077 49.7729 312.545 50.3708L312.763 50.4586C313.63 50.8122 314.292 51.5145 314.583 52.3877C314.874 53.2609 314.76 54.21 314.275 54.993L314.013 55.4178C313.858 55.6669 313.528 55.7452 313.275 55.5957C313.021 55.4439 312.941 55.1212 313.093 54.8744L313.355 54.4497C313.681 53.9277 313.756 53.2941 313.562 52.7128C313.368 52.1314 312.926 51.664 312.351 51.4291L312.133 51.3413C311.152 50.945 310.01 51.3128 309.469 52.2026L305.257 59.1288C304.49 60.3935 304.005 61.7721 303.813 63.229L303.294 68.1763C303.265 68.4468 303.032 68.6485 302.76 68.6485L302.758 68.6462Z" fill="#13536C"/>
<path d="M284.68 155.279L275.649 152.339C265.802 149.134 261.474 137.872 266.724 129.117L291.827 87.2463L316.862 101.602L284.682 155.279H284.68Z" fill="#58C2D9"/>
<path d="M284.679 155.804C284.624 155.804 284.565 155.794 284.51 155.778L275.479 152.838C270.632 151.26 266.821 147.672 265.023 142.993C263.225 138.316 263.676 133.16 266.26 128.849L291.363 86.9781C291.511 86.729 291.841 86.6435 292.099 86.7907L317.134 101.146C317.258 101.217 317.345 101.331 317.381 101.466C317.418 101.602 317.396 101.744 317.325 101.865L294.323 140.233C294.173 140.482 293.845 140.568 293.588 140.421C293.333 140.274 293.246 139.953 293.396 139.702L316.127 101.784L292.018 87.9604L267.187 129.378C264.768 133.414 264.346 138.24 266.027 142.62C267.711 147.001 271.28 150.358 275.817 151.836L284.847 154.776C285.128 154.869 285.281 155.165 285.186 155.441C285.111 155.661 284.903 155.801 284.677 155.801L284.679 155.804Z" fill="#13536C"/>
<path d="M341.295 143.411L372.898 141L376.101 143.37L388.083 280.374L278 246.412L328.197 196.253L322.884 179.691L341.295 143.411Z" fill="#58C2D9"/>
<path d="M388.449 280.843C388.395 280.843 388.339 280.836 388.286 280.82L278.203 246.858C278.025 246.803 277.89 246.661 277.843 246.485C277.797 246.307 277.851 246.12 277.979 245.989L327.95 196.058L322.732 179.795C322.642 179.518 322.8 179.223 323.084 179.136C323.368 179.048 323.668 179.204 323.758 179.48L329.074 196.042C329.132 196.227 329.083 196.429 328.945 196.566L279.36 246.113L387.845 279.581L375.949 143.593L373.098 141.484L341.699 143.878C341.408 143.899 341.146 143.683 341.122 143.396C341.098 143.107 341.321 142.855 341.614 142.832L373.217 140.421C373.353 140.414 373.479 140.447 373.584 140.525L376.786 142.896C376.907 142.986 376.985 143.121 376.997 143.271L388.98 280.274C388.994 280.449 388.922 280.618 388.781 280.729C388.684 280.805 388.565 280.846 388.446 280.846L388.449 280.843Z" fill="#13536C"/>
<path d="M418.3 185.998L397.243 205.528L353.461 160.381L374.6 141.413L418.3 185.998Z" fill="#58C2D9"/>
<path d="M397.243 206.055C397.1 206.055 396.959 206 396.852 205.891L368.357 176.507C368.153 176.295 368.163 175.963 368.377 175.764C368.593 175.565 368.932 175.574 369.136 175.783L397.26 204.786L417.537 185.979L376.57 143.731C375.129 142.246 373.108 141.486 371.019 141.643L347.589 143.43C347.298 143.451 347.036 143.235 347.012 142.948C346.988 142.658 347.211 142.405 347.505 142.383L370.934 140.597C373.345 140.414 375.684 141.292 377.348 143.007L418.687 185.637C418.784 185.739 418.838 185.874 418.835 186.012C418.831 186.152 418.772 186.282 418.668 186.38L397.612 205.91C397.507 206.008 397.374 206.055 397.243 206.055Z" fill="#13536C"/>
<path d="M323.057 179.263C319.736 178.599 317.128 175.851 316.851 172.382C316.676 170.185 317.47 168.133 318.884 166.628L323.057 179.263Z" fill="#58C2D9"/>
<path d="M323.056 179.79C323.02 179.79 322.984 179.786 322.947 179.778C319.33 179.055 316.6 176.029 316.314 172.425C316.135 170.178 316.926 167.936 318.486 166.275C318.687 166.061 319.027 166.047 319.245 166.244C319.463 166.441 319.478 166.773 319.276 166.987C317.918 168.434 317.229 170.387 317.384 172.344C317.634 175.486 320.012 178.12 323.163 178.751C323.454 178.808 323.641 179.088 323.58 179.37C323.529 179.619 323.304 179.79 323.054 179.79H323.056Z" fill="#13536C"/>
<path d="M350.166 182.737C348.914 182.737 347.677 182.462 346.548 181.931C346.282 181.805 346.17 181.492 346.299 181.228C346.427 180.967 346.75 180.858 347.017 180.984C348.167 181.527 349.45 181.762 350.733 181.665C353.65 181.442 356.134 179.546 357.061 176.832C357.155 176.556 357.459 176.407 357.74 176.499C358.022 176.592 358.174 176.888 358.08 177.164C357.017 180.279 354.166 182.457 350.818 182.714C350.602 182.73 350.384 182.737 350.168 182.737H350.166Z" fill="#13536C"/>
<path d="M382.467 213C382.414 213 382.361 212.993 382.311 212.977L328.375 197C328.114 196.922 327.957 196.67 328.01 196.413C328.063 196.157 328.315 195.979 328.579 196.002L380.988 200.626C381.235 200.65 381.434 200.832 381.468 201.07L382.995 212.422C383.019 212.596 382.95 212.767 382.81 212.88C382.714 212.958 382.592 213 382.467 213ZM333.575 197.47L381.833 211.764L380.466 201.606L333.572 197.47H333.575Z" fill="#13536C"/>
<path d="M409.904 155.185L359.542 108.241C356.507 105.275 352.217 103.571 347.605 103.922C339.233 104.561 332.973 111.717 333.626 119.908C334.121 126.103 338.512 132.159 344.204 133.955L373.148 170.506L409.901 155.185H409.904Z" fill="#13536C"/>
<path d="M350.964 142.647L340.357 160.317L337.448 123.843L349.392 122.931L350.964 142.647Z" fill="#BAD3DA"/>
<path d="M340.357 160.842C340.318 160.842 340.277 160.837 340.235 160.827C340.007 160.775 339.84 160.585 339.821 160.358L336.912 123.883C336.899 123.743 336.946 123.605 337.04 123.501C337.132 123.394 337.266 123.33 337.407 123.318L349.35 122.407C349.644 122.383 349.904 122.602 349.928 122.889L351.5 142.602C351.507 142.709 351.483 142.816 351.427 142.908L340.82 160.578C340.723 160.742 340.544 160.837 340.357 160.837V160.842ZM338.025 124.327L340.759 158.609L350.415 142.521L348.899 123.496L338.025 124.324V124.327Z" fill="#13536C"/>
<path d="M349.746 127.361L349.392 122.931L337.448 123.842L338.227 133.618C339.321 133.746 341.49 133.846 343.894 132.864C347.657 131.324 349.316 128.227 349.743 127.361H349.746Z" fill="#13536C"/>
<path d="M342.355 130.441C347.661 130.036 351.592 125.058 351.134 119.323C350.677 113.587 346.005 109.266 340.699 109.67C335.393 110.075 331.462 115.053 331.92 120.788C332.377 126.524 337.049 130.845 342.355 130.441Z" fill="#BAD3DA"/>
<path d="M341.663 130.996C339.205 130.996 336.847 130.054 334.952 128.303C332.885 126.391 331.618 123.738 331.385 120.834C330.905 114.819 335.066 109.579 340.658 109.152C343.375 108.948 346.022 109.893 348.104 111.817C350.171 113.729 351.437 116.382 351.67 119.287C352.151 125.302 347.99 130.541 342.398 130.968C342.153 130.987 341.905 130.996 341.66 130.996H341.663ZM341.391 110.175C341.175 110.175 340.959 110.182 340.741 110.199C335.738 110.581 332.021 115.314 332.455 120.751C332.666 123.394 333.814 125.805 335.689 127.539C337.548 129.259 339.904 130.102 342.313 129.919C347.315 129.537 351.032 124.803 350.598 119.367C350.387 116.724 349.239 114.313 347.364 112.579C345.673 111.015 343.572 110.173 341.388 110.173L341.391 110.175Z" fill="#13536C"/>
<path d="M346.065 124.303C345.204 125.204 344.052 125.859 342.715 126.096C339.731 126.626 336.868 124.922 335.9 122.205L346.065 124.303Z" fill="#58C2D9"/>
<path d="M325.609 184.633C325.514 184.633 325.417 184.61 325.33 184.557C325.077 184.406 324.997 184.083 325.15 183.836L351.042 142.331C351.197 142.082 351.527 142.006 351.78 142.155C352.032 142.307 352.112 142.63 351.959 142.877L326.067 184.382C325.965 184.546 325.788 184.633 325.609 184.633Z" fill="#13536C"/>
<path d="M392.878 144.486L391.757 138.622C391.757 138.622 386.17 137.697 385.335 131.68C385.141 130.284 385 127.383 384.91 124.931C384.809 122.143 384.328 119.384 383.489 116.717L382.526 113.663C382.04 112.128 382.88 110.493 384.428 109.954L384.758 109.84C386.327 109.295 388.052 110.075 388.647 111.596L392.47 121.401L396.505 118.183C398.572 116.534 400.13 114.353 401.001 111.888L404.722 101.996C405.341 100.352 407.105 99.4072 408.854 99.7797L409.152 99.8438L410.61 94.3483C411.093 92.7443 412.779 91.7952 414.441 92.1938C416.072 92.583 417.117 94.1419 416.831 95.7602L409.812 135.595L410.953 142.466L392.878 144.486Z" fill="#BAD3DA"/>
<path d="M392.877 145.01C392.622 145.01 392.397 144.832 392.351 144.58L391.295 139.052C389.971 138.703 385.553 137.142 384.803 131.748C384.602 130.296 384.458 127.25 384.376 124.948C384.274 122.212 383.806 119.493 382.976 116.871L382.013 113.817C381.44 112.007 382.423 110.092 384.25 109.458L384.58 109.344C386.409 108.708 388.459 109.634 389.151 111.409L392.71 120.535L396.167 117.777C398.159 116.188 399.656 114.092 400.495 111.717L404.222 101.815C404.906 100 406.832 98.9159 408.766 99.2291L410.095 94.2154C410.666 92.3219 412.626 91.2138 414.574 91.6812C416.471 92.1344 417.697 93.9662 417.367 95.8479L410.362 135.597L411.488 142.381C411.512 142.523 411.473 142.668 411.386 142.782C411.296 142.896 411.165 142.972 411.02 142.986L392.945 145.005C392.926 145.008 392.904 145.01 392.884 145.01H392.877ZM385.771 110.194C385.494 110.194 385.213 110.239 384.936 110.334L384.606 110.448C383.325 110.891 382.636 112.234 383.037 113.506L384 116.56C384.856 119.272 385.342 122.082 385.446 124.91C385.565 128.175 385.71 130.491 385.866 131.606C386.64 137.175 391.793 138.093 391.846 138.1C392.067 138.138 392.244 138.304 392.285 138.523L393.314 143.904L410.331 142.001L409.28 135.675C409.271 135.618 409.271 135.559 409.28 135.502L416.299 95.6675C416.534 94.3269 415.661 93.0218 414.31 92.6991C412.922 92.367 411.524 93.1547 411.122 94.493L409.668 99.9718C409.596 100.245 409.314 100.413 409.035 100.354L408.737 100.29C407.254 99.9718 405.745 100.783 405.221 102.174L401.5 112.066C400.597 114.617 398.986 116.873 396.839 118.586L392.804 121.804C392.671 121.911 392.494 121.949 392.326 121.904C392.159 121.861 392.023 121.74 391.963 121.583L388.139 111.779C387.758 110.801 386.788 110.189 385.766 110.189L385.771 110.194Z" fill="#13536C"/>
<path d="M404.046 124.87L404.388 121.844C404.606 119.92 404.247 117.977 403.357 116.249L398.483 106.784C397.782 105.422 398.327 103.764 399.71 103.059C401.025 102.387 402.648 102.814 403.439 104.041L409.92 114.073C410.444 114.885 410.795 115.789 410.956 116.736L411.482 120.95L404.046 124.87Z" fill="#BAD3DA"/>
<path d="M404.672 116.833L405.521 113.905C406.062 112.042 406.036 110.068 405.451 108.22L402.244 98.0973C401.783 96.6427 402.603 95.0933 404.083 94.6211C405.492 94.1727 407.021 94.856 407.596 96.1943L412.29 107.138C412.669 108.023 412.863 108.972 412.86 109.93L412.848 115.096L404.67 116.835L404.672 116.833Z" fill="#BAD3DA"/>
<path d="M412.864 110.452C412.568 110.452 412.328 110.215 412.328 109.926C412.33 109.033 412.153 108.163 411.799 107.337L407.104 96.3934C406.643 95.3162 405.389 94.7538 404.253 95.1192C403.057 95.4989 402.388 96.766 402.759 97.9405L405.255 105.702C405.345 105.98 405.187 106.274 404.904 106.362C404.62 106.449 404.319 106.293 404.229 106.018L401.733 98.2537C401.187 96.5311 402.167 94.6779 403.919 94.1203C405.58 93.5912 407.415 94.4098 408.092 95.9877L412.786 106.931C413.196 107.887 413.402 108.896 413.4 109.928C413.4 110.217 413.16 110.452 412.864 110.452Z" fill="#13536C"/>
<path d="M403.211 128.505C403.179 128.505 403.145 128.502 403.111 128.495C402.82 128.443 402.628 128.168 402.682 127.883L403.858 121.747C404.06 119.958 403.723 118.126 402.876 116.484L398.002 107.019C397.174 105.41 397.827 103.424 399.46 102.591C401.013 101.801 402.958 102.314 403.892 103.759L409.778 112.337C411.12 114.292 411.459 116.401 411.821 118.636L411.843 118.779C411.889 119.066 411.69 119.334 411.396 119.379C411.103 119.429 410.829 119.23 410.783 118.942L410.758 118.8C410.416 116.684 410.094 114.683 408.885 112.923L402.99 104.331C402.344 103.329 401.015 102.978 399.955 103.522C398.841 104.091 398.392 105.448 398.958 106.547L403.832 116.01C404.771 117.834 405.147 119.87 404.916 121.899L403.735 128.073C403.686 128.325 403.46 128.502 403.208 128.502L403.211 128.505Z" fill="#13536C"/>
<path d="M394.12 126.251C393.902 126.251 393.698 126.12 393.618 125.909L391.966 121.583C391.862 121.31 392.002 121.009 392.281 120.907C392.56 120.805 392.869 120.943 392.973 121.215L394.625 125.541C394.729 125.814 394.589 126.115 394.31 126.217C394.247 126.241 394.184 126.251 394.123 126.251H394.12Z" fill="#13536C"/>
<path d="M397.076 205.438L392.129 143.402L421.061 141.195L425.193 193.005C426.386 207.975 407.778 216.204 397.076 205.438Z" fill="#58C2D9"/>
<path d="M408.686 210.893C404.275 210.893 400.017 209.149 396.691 205.806C396.485 205.597 396.49 205.265 396.701 205.063C396.914 204.862 397.254 204.866 397.46 205.073C403.186 210.832 410.467 210.566 415.375 208.395C420.28 206.226 425.295 201.053 424.657 193.047L420.567 141.762L392.705 143.888L396.194 187.628C396.218 187.917 395.995 188.169 395.701 188.193C395.41 188.214 395.148 188 395.124 187.711L391.594 143.446C391.569 143.157 391.793 142.905 392.086 142.882L421.02 140.675C421.168 140.665 421.304 140.708 421.411 140.801C421.52 140.891 421.586 141.021 421.598 141.159L425.729 192.969C426.299 200.121 422.503 206.402 415.819 209.356C413.48 210.39 411.061 210.896 408.686 210.896V210.893Z" fill="#13536C"/>
</g>
<path d="M0.212891 181.455V319.097C0.212891 387.525 55.6372 442.994 124.006 442.994H198.386C240.937 442.994 275.431 408.47 275.431 365.883V364.874C275.431 324.029 242.347 290.916 201.536 290.916H158.397C128.578 290.916 99.8571 279.668 77.9582 259.414C44.0229 228.031 0.212891 181.455 0.212891 181.455Z" fill="#58C2D9"/>
<path d="M183.995 409.833L182.651 431.912C181.555 431.912 180.975 432.33 180.975 433.426L180.133 440.92C180.133 442.017 181.021 442.909 182.119 442.909H254.601C256.324 442.909 257.722 441.511 257.722 439.784V434.675C257.722 432.95 256.324 431.55 254.601 431.55V426.626C254.601 422.53 251.588 419.059 247.535 418.487L236.209 416.89C234.41 416.636 232.705 415.932 231.248 414.845L223.965 409.833H183.998H183.995Z" fill="#BAD3DA"/>
<path d="M181.987 431.548C180.977 431.548 180.16 432.366 180.155 433.375L180.133 440.918C180.133 442.014 181.021 442.906 182.119 442.906H254.601C256.324 442.906 257.722 441.509 257.722 439.782V434.672C257.722 432.947 256.324 431.548 254.601 431.548H181.99H181.987Z" fill="#13536C"/>
<path d="M254.618 432.088C254.618 432.088 254.596 432.088 254.586 432.088C254.289 432.071 254.062 431.814 254.079 431.516L254.311 427.498C254.545 423.451 251.7 419.941 247.696 419.332L234.09 417.266C234.015 417.259 233.939 417.29 233.895 417.354L226.88 428.033C226.717 428.282 226.383 428.353 226.131 428.187C225.882 428.023 225.814 427.686 225.978 427.437L232.995 416.758C233.268 416.343 233.766 416.123 234.254 416.196L247.862 418.263C252.42 418.954 255.658 422.95 255.392 427.559L255.16 431.577C255.143 431.865 254.906 432.088 254.621 432.088H254.618Z" fill="#13536C"/>
<path d="M221.374 418.827C221.189 418.827 221.008 418.731 220.908 418.558C220.757 418.299 220.845 417.969 221.103 417.818L228.535 413.48C228.794 413.331 229.124 413.416 229.275 413.675C229.424 413.934 229.338 414.264 229.08 414.415L221.647 418.753C221.562 418.802 221.469 418.827 221.377 418.827H221.374Z" fill="#13536C"/>
<path d="M196.054 431.912C193.695 422.371 186.907 418.331 183.393 416.838L182.071 431.584C181.668 431.584 196.054 431.912 196.054 431.912Z" fill="#020202"/>
<path d="M143.465 432.899H120.102C116.269 432.899 112.616 431.277 110.042 428.434L81.4676 396.856L81.0626 396.411C80.1817 395.495 78.7494 395.397 77.7515 396.184L74.1159 399.396C72.9838 400.29 72.8544 401.958 73.8353 403.016L104.867 436.521C108.578 440.527 113.79 442.806 119.248 442.806H143.465C144.78 442.806 145.847 441.739 145.847 440.422V435.281C145.847 433.964 144.78 432.897 143.465 432.897V432.899Z" fill="#BAD3DA"/>
<path d="M97.0988 385.067L81.4707 396.855L110.045 428.434C112.617 431.277 116.272 432.899 120.105 432.899H143.468C143.468 420.407 134.98 417.725 130.58 417.173C128.775 416.946 127.108 416.094 125.864 414.765L97.0988 385.07V385.067Z" fill="#BAD3DA"/>
<path d="M143.465 433.439C143.167 433.439 142.925 433.197 142.925 432.899C142.925 424.245 138.58 419.125 130.36 418.092C129.725 418.011 129.1 417.86 128.5 417.637C128.22 417.532 128.078 417.222 128.183 416.944C128.286 416.663 128.598 416.521 128.878 416.624C129.398 416.817 129.942 416.951 130.496 417.019C136.66 417.791 144.009 421.174 144.009 432.899C144.009 433.197 143.767 433.439 143.47 433.439H143.465Z" fill="#13536C"/>
<path d="M143.465 432.899H120.102C116.269 432.899 112.616 431.277 110.042 428.434L81.4676 396.855L81.0626 396.411C80.1817 395.495 78.7494 395.397 77.7515 396.184L74.1159 399.396C72.9838 400.29 72.8544 401.958 73.8353 403.016L104.867 436.521C108.578 440.527 113.79 442.806 119.248 442.806H143.465C144.78 442.806 145.847 441.739 145.847 440.422V435.28C145.847 433.964 144.78 432.896 143.465 432.896V432.899Z" fill="#020202"/>
<path d="M89.6886 405.937C92.4824 402.994 94.2001 399.017 94.2001 394.635C94.2001 392.363 93.739 390.199 92.9045 388.23L81.4707 396.855L89.6886 405.937Z" fill="#020202"/>
<path d="M117.218 426.47C117.057 426.47 116.896 426.397 116.789 426.257C116.608 426.02 116.652 425.681 116.889 425.5L128.315 416.734C128.552 416.553 128.891 416.597 129.072 416.834C129.252 417.071 129.208 417.41 128.972 417.591L117.545 426.357C117.448 426.433 117.33 426.47 117.216 426.47H117.218Z" fill="#13536C"/>
<path d="M114.239 418.925C114.029 418.925 113.826 418.8 113.741 418.592C113.626 418.316 113.756 417.999 114.029 417.884L120.873 415.004C121.149 414.889 121.466 415.019 121.581 415.292C121.695 415.569 121.566 415.886 121.293 416.001L114.449 418.881C114.38 418.91 114.31 418.922 114.239 418.922V418.925Z" fill="#13536C"/>
<path d="M163.382 325.135L97.0977 385.067L125.863 414.765L198.567 345.624L183.39 329.757L163.382 325.135Z" fill="#13536C"/>
<path d="M94.3813 287.7L94.4521 303.43C94.5204 318.298 106.581 330.314 121.436 330.314H180.42V410.122H228.91L228.759 314.664C228.734 299.766 216.661 287.7 201.775 287.7H94.3789H94.3813Z" fill="#13536C"/>
<path d="M180.423 330.959C180.255 330.959 180.091 330.88 179.986 330.736C179.811 330.495 179.864 330.157 180.106 329.982L193.384 320.345C193.626 320.17 193.962 320.223 194.138 320.465C194.314 320.707 194.26 321.044 194.019 321.22L180.74 330.856C180.645 330.927 180.533 330.959 180.423 330.959Z" fill="#BAD3DA"/>
<path d="M228.913 410.661H180.423C180.125 410.661 179.884 410.419 179.884 410.121V330.853H121.439C106.33 330.853 93.9838 318.552 93.9155 303.433L93.8594 287.338C93.8594 287.04 94.0985 286.796 94.3986 286.796C94.6963 286.796 94.9379 287.038 94.9379 287.336L94.994 303.43C95.0598 317.956 106.923 329.774 121.439 329.774H180.423C180.72 329.774 180.962 330.016 180.962 330.314V409.582H228.371C228.27 346.305 228.22 314.665 228.22 314.664C228.21 308.611 226.231 302.751 222.649 298.166C218.994 293.486 213.311 290.15 206.648 288.77C202.961 288.005 199.096 287.89 195.8 287.878C195.502 287.878 195.26 287.634 195.26 287.336C195.26 287.038 195.502 286.796 195.8 286.796C199.147 286.808 203.081 286.925 206.863 287.709C213.775 289.141 219.682 292.619 223.496 297.499C227.224 302.275 229.284 308.369 229.293 314.664C229.293 314.708 229.445 410.121 229.445 410.121C229.445 410.266 229.388 410.402 229.286 410.505C229.186 410.608 229.047 410.664 228.903 410.664L228.913 410.661Z" fill="#BAD3DA"/>
<path d="M182.896 201.033V219.672H203.863V211.143L204.988 209.548C206.047 208.045 206.613 206.253 206.613 204.416V201.033H182.896Z" fill="#58C2D9"/>
<path d="M164.321 170.087L164.921 174.168C165.273 176.562 166.158 178.844 167.513 180.847L169.323 183.526C170.668 185.517 171.668 187.715 172.273 190.041C172.842 192.232 174.096 195.292 177.026 198.07L185.408 206.011L181.821 181.609L176.238 175.817C174.586 174.105 173.513 171.916 173.169 169.562L173.056 168.8C172.715 166.474 170.553 164.867 168.23 165.209L167.91 165.255C165.587 165.597 163.98 167.759 164.321 170.087Z" fill="#58C2D9"/>
<path d="M178.131 199.66C177.997 199.66 177.865 199.611 177.76 199.511L176.653 198.463C174.23 196.167 172.58 193.38 171.748 190.178C171.16 187.918 170.194 185.783 168.874 183.829L167.063 181.15C165.673 179.091 164.745 176.704 164.384 174.247L163.784 170.165C163.599 168.898 163.916 167.632 164.68 166.604C165.443 165.576 166.561 164.906 167.827 164.721L168.147 164.674C170.762 164.288 173.2 166.106 173.586 168.722L173.698 169.484C173.761 169.921 173.854 170.358 173.971 170.786C174.049 171.074 173.881 171.372 173.593 171.45C173.305 171.528 173.007 171.36 172.929 171.071C172.8 170.602 172.7 170.119 172.629 169.64L172.517 168.878C172.373 167.896 171.856 167.029 171.058 166.438C170.262 165.844 169.284 165.6 168.303 165.744L167.983 165.791C167.002 165.935 166.136 166.452 165.546 167.251C164.955 168.048 164.709 169.027 164.853 170.009L165.453 174.091C165.79 176.389 166.656 178.622 167.959 180.546L169.769 183.226C171.158 185.28 172.175 187.53 172.795 189.909C173.576 192.913 175.123 195.527 177.397 197.681L178.505 198.729C178.722 198.934 178.731 199.276 178.526 199.494C178.419 199.606 178.278 199.662 178.134 199.662L178.131 199.66Z" fill="#13536C"/>
<path d="M203.863 214.821L182.896 216.832V219.672H203.863V214.821Z" fill="#13536C"/>
<path d="M199.499 207.313H179.501L170.588 154.012H208.413L199.499 207.313Z" fill="#BAD3DA"/>
<path d="M199.5 207.853H179.502C179.238 207.853 179.011 207.662 178.97 207.401L170.057 154.1C170.03 153.944 170.074 153.783 170.176 153.661C170.279 153.538 170.43 153.47 170.588 153.47H208.413C208.572 153.47 208.723 153.541 208.825 153.661C208.928 153.783 208.972 153.941 208.945 154.1L206.473 168.885C206.425 169.181 206.146 169.381 205.851 169.33C205.556 169.281 205.358 169.003 205.407 168.707L207.774 154.552H171.223L179.956 206.77H199.039L199.468 204.206C199.517 203.91 199.795 203.71 200.09 203.761C200.386 203.81 200.583 204.088 200.534 204.384L200.029 207.401C199.985 207.662 199.761 207.853 199.497 207.853H199.5Z" fill="#13536C"/>
<path d="M209.96 161.99L211.4 153.377H167.6L169.042 161.99H209.96Z" fill="#DFE3E8"/>
<path d="M209.96 162.532H169.042C168.778 162.532 168.551 162.342 168.51 162.08L167.07 153.468C167.043 153.311 167.087 153.15 167.19 153.028C167.292 152.906 167.444 152.837 167.602 152.837H211.402C211.561 152.837 211.712 152.908 211.815 153.028C211.917 153.15 211.961 153.309 211.934 153.468L210.495 162.08C210.451 162.342 210.226 162.532 209.963 162.532H209.96ZM169.498 161.45H209.502L210.761 153.919H168.237L169.496 161.45H169.498Z" fill="#13536C"/>
<path d="M193.678 163.526H197.177C199.36 163.526 201.456 164.396 203.003 165.942L208.178 171.123C209.103 172.049 209.623 173.304 209.623 174.613V174.96C209.623 176.27 209.103 177.525 208.178 178.451L207.127 179.504L201.029 173.399C199.477 171.848 197.377 170.976 195.183 170.976H193.68C191.733 170.976 190.154 169.396 190.154 167.447V167.054C190.154 165.104 191.733 163.524 193.68 163.524L193.678 163.526Z" fill="#58C2D9"/>
<path d="M207.128 180.046C206.984 180.046 206.847 179.989 206.744 179.887L200.647 173.783C199.188 172.322 197.246 171.518 195.181 171.518H193.678C191.436 171.518 189.613 169.694 189.613 167.449V167.056C189.613 164.811 191.438 162.986 193.678 162.986H197.177C199.522 162.986 201.728 163.9 203.385 165.561L208.56 170.742C209.594 171.777 210.163 173.153 210.163 174.616V174.963C210.163 176.426 209.594 177.801 208.56 178.837L207.508 179.889C207.406 179.992 207.269 180.048 207.125 180.048L207.128 180.046ZM193.678 164.068C192.031 164.068 190.692 165.409 190.692 167.056V167.449C190.692 169.095 192.031 170.436 193.678 170.436H195.181C197.533 170.436 199.747 171.355 201.411 173.018L207.128 178.739L207.799 178.067C208.628 177.237 209.084 176.133 209.084 174.958V174.611C209.084 173.436 208.628 172.332 207.799 171.501L202.623 166.32C201.169 164.865 199.237 164.064 197.18 164.064H193.681L193.678 164.068Z" fill="#13536C"/>
<path d="M206.623 200.18V205.601H203.534C200.535 205.601 198.105 203.168 198.105 200.168V197.581L192.5 191.973C191.234 190.705 190.521 188.986 190.521 187.19V186.827C190.521 185.322 191.741 184.103 193.245 184.103H193.647C194.367 184.103 195.057 184.389 195.567 184.897L203.602 192.906C205.535 194.833 206.623 197.452 206.623 200.183V200.18Z" fill="#58C2D9"/>
<path d="M187.183 170.93H195.157C197.341 170.93 199.437 171.799 200.984 173.346L206.137 178.502C207.077 179.442 207.606 180.72 207.606 182.051V182.33C207.606 183.661 207.077 184.938 206.137 185.879L205.11 186.907L196.609 178.399H187.188C185.212 178.399 183.611 176.797 183.611 174.819V174.511C183.611 172.532 185.214 170.93 187.188 170.93H187.183Z" fill="#58C2D9"/>
<path d="M206.135 186.421C205.996 186.421 205.859 186.367 205.752 186.262C205.542 186.052 205.542 185.708 205.752 185.498C206.596 184.65 207.062 183.527 207.062 182.332V182.054C207.062 180.857 206.596 179.733 205.752 178.888L200.599 173.732C199.144 172.276 197.212 171.475 195.155 171.475H187.181C185.507 171.475 184.143 172.838 184.143 174.516V174.823C184.143 176.499 185.505 177.865 187.181 177.865H189.253C189.55 177.865 189.792 178.106 189.792 178.404C189.792 178.702 189.55 178.944 189.253 178.944H187.181C184.91 178.944 183.062 177.095 183.062 174.823V174.516C183.062 172.244 184.91 170.395 187.181 170.395H195.155C197.5 170.395 199.703 171.309 201.362 172.967L206.516 178.123C207.565 179.174 208.143 180.571 208.143 182.054V182.332C208.143 183.817 207.565 185.212 206.516 186.262C206.411 186.367 206.272 186.421 206.133 186.421H206.135Z" fill="#13536C"/>
<path d="M189.635 178.045H195.156C197.34 178.045 199.436 178.915 200.983 180.461L206.144 185.627C207.078 186.563 207.603 187.833 207.603 189.154V189.457C207.603 190.781 207.078 192.049 206.144 192.984L204.816 194.313L196.24 185.495H189.635C187.688 185.495 186.111 183.917 186.111 181.968V181.57C186.111 179.623 187.69 178.043 189.635 178.043V178.045Z" fill="#58C2D9"/>
<path d="M205.107 194.909C204.968 194.909 204.832 194.856 204.724 194.751C204.514 194.541 204.514 194.196 204.724 193.986L205.761 192.948C206.601 192.108 207.064 190.991 207.064 189.802V189.499C207.064 188.312 206.603 187.193 205.761 186.353L200.601 181.187C199.146 179.731 197.214 178.93 195.157 178.93H189.635C187.991 178.93 186.651 180.268 186.651 181.915V182.313C186.651 183.959 187.991 185.298 189.635 185.298H190.572C190.87 185.298 191.112 185.539 191.112 185.837C191.112 186.135 190.87 186.377 190.572 186.377H189.635C187.395 186.377 185.57 184.553 185.57 182.31V181.912C185.57 179.67 187.393 177.845 189.635 177.845H195.157C197.502 177.845 199.705 178.759 201.364 180.417L206.525 185.583C207.569 186.629 208.143 188.016 208.143 189.494V189.797C208.143 191.275 207.567 192.662 206.525 193.708L205.488 194.746C205.383 194.851 205.244 194.904 205.105 194.904L205.107 194.909Z" fill="#13536C"/>
<path d="M203.864 220.215H182.865C182.568 220.215 182.326 219.973 182.326 219.675V207.313C182.326 207.015 182.568 206.773 182.865 206.773C183.163 206.773 183.405 207.015 183.405 207.313V219.132H203.322V211.143C203.322 211.03 203.356 210.923 203.42 210.83L204.545 209.235C205.545 207.818 206.072 206.15 206.072 204.416L206.082 200.18C206.082 197.613 205.04 195.1 203.22 193.287L195.185 185.278C194.773 184.867 194.226 184.64 193.645 184.64H193.243C192.04 184.64 191.061 185.62 191.061 186.824V187.188C191.061 188.849 191.708 190.412 192.882 191.587L198.486 197.195C198.589 197.295 198.645 197.435 198.645 197.579V200.166C198.645 202.862 200.838 205.058 203.532 205.058C203.83 205.058 204.071 205.3 204.071 205.598C204.071 205.896 203.83 206.138 203.532 206.138C200.241 206.138 197.564 203.458 197.564 200.163V197.801L192.118 192.349C190.739 190.969 189.98 189.135 189.98 187.185V186.821C189.98 185.021 191.444 183.556 193.243 183.556H193.645C194.514 183.556 195.331 183.893 195.949 184.508L203.984 192.518C206.004 194.533 207.163 197.325 207.163 200.178L207.153 204.413C207.153 206.372 206.558 208.253 205.428 209.855L204.403 211.311V219.67C204.403 219.968 204.162 220.21 203.864 220.21V220.215Z" fill="#13536C"/>
<path d="M55.5797 226.402L52.437 220.635C52.437 220.635 56.4532 216.04 52.9664 210.339C52.1588 209.018 50.2556 206.443 48.6257 204.291C46.7713 201.844 45.2512 199.159 44.0995 196.314L42.7795 193.05C42.1158 191.411 40.2785 190.586 38.6144 191.182L38.2582 191.309C36.5722 191.912 35.6742 193.754 36.2379 195.454L39.8686 206.424H34.2664C31.3945 206.424 28.5812 205.622 26.1388 204.113L16.1543 198.204C14.4951 197.222 12.3675 197.616 11.167 199.128L10.962 199.386L5.92347 195.688C4.4058 194.648 2.33913 194.985 1.23138 196.455C0.143141 197.899 0.35542 199.938 1.71937 201.128L35.2765 230.347L39.1049 236.986L55.5821 226.407L55.5797 226.402Z" fill="#58C2D9"/>
<path d="M39.1005 236.981L55.5801 226.402L53.755 223.055L38.0488 235.153L39.1005 236.981Z" fill="#13536C"/>
<path d="M39.0999 237.523C39.056 237.523 39.0145 237.518 38.9731 237.508C38.8291 237.474 38.7071 237.381 38.6339 237.254L34.8519 230.693L1.36309 201.531C-0.20826 200.163 -0.454698 197.789 0.799455 196.125C2.08289 194.421 4.4692 194.03 6.22843 195.236L10.8644 198.639C12.243 197.049 14.6 196.653 16.4276 197.733L26.412 203.641C28.7788 205.107 31.4921 205.879 34.2639 205.879H39.1195L35.723 195.62C35.074 193.656 36.128 191.489 38.0751 190.796L38.4314 190.669C40.3736 189.975 42.5037 190.93 43.2796 192.845L44.5997 196.108C45.7367 198.915 47.2349 201.558 49.0551 203.964C51.2828 206.905 52.7517 208.957 53.4251 210.056C56.558 215.178 53.9204 219.521 53.0786 220.684L56.053 226.14C56.1896 226.39 56.1091 226.702 55.87 226.854L39.3927 237.433C39.3049 237.489 39.2024 237.518 39.0999 237.518V237.523ZM3.9812 195.617C3.10036 195.617 2.23173 196.018 1.65833 196.778C0.743335 197.989 0.923894 199.719 2.06825 200.715L35.6254 229.931C35.6693 229.97 35.7084 230.017 35.7376 230.068L39.2829 236.216L54.8598 226.214L51.9587 220.889C51.8513 220.691 51.8781 220.444 52.027 220.273C52.1783 220.097 55.7309 215.896 52.5003 210.615C51.8562 209.56 50.3654 207.484 48.1913 204.611C46.3125 202.129 44.768 199.403 43.5944 196.509L42.2744 193.246C41.718 191.87 40.1882 191.184 38.7901 191.682L38.4338 191.809C37.0357 192.31 36.2769 193.864 36.7429 195.275L40.3736 206.245C40.4273 206.409 40.4004 206.592 40.298 206.731C40.1955 206.873 40.0345 206.956 39.8612 206.956H34.259C31.2847 206.956 28.3762 206.128 25.8459 204.562L15.8713 198.658C14.4512 197.818 12.6066 198.16 11.5818 199.452L11.3768 199.711C11.1962 199.938 10.8693 199.982 10.635 199.811L5.59647 196.113C5.10115 195.774 4.53752 195.61 3.97632 195.61L3.9812 195.617Z" fill="#13536C"/>
<path d="M41.4969 211.778C41.2725 211.778 41.0626 211.636 40.9845 211.412L39.3546 206.597C39.2595 206.314 39.4107 206.009 39.6938 205.911C39.9768 205.816 40.2818 205.967 40.3794 206.25L42.0093 211.065C42.1045 211.348 41.9532 211.653 41.6702 211.751C41.6116 211.771 41.553 211.78 41.4969 211.78V211.778Z" fill="#13536C"/>
<path d="M26.5096 210.83L23.7646 208.908C22.0201 207.686 20.6659 205.984 19.8704 204.008L15.5053 193.187C14.8782 191.631 13.1165 190.866 11.5525 191.472C10.0641 192.049 9.26624 193.673 9.71764 195.205L13.4118 207.74C13.7095 208.754 14.2097 209.697 14.8782 210.512L18.4821 214.912L26.5121 210.83H26.5096Z" fill="#58C2D9"/>
<path d="M14.8778 211.055C14.7217 211.055 14.5655 210.986 14.4606 210.857C13.7408 209.98 13.2138 208.983 12.8941 207.894L9.19999 195.358C8.67296 193.57 9.62211 191.641 11.3594 190.969C13.1869 190.261 15.2731 191.164 16.0076 192.984L19.3259 201.311C19.4357 201.589 19.3015 201.902 19.0234 202.014C18.7452 202.127 18.4329 201.99 18.3207 201.712L15.0023 193.387C14.4899 192.115 13.0283 191.482 11.7473 191.978C10.5298 192.449 9.86611 193.8 10.2345 195.053L13.9287 207.589C14.2093 208.536 14.668 209.406 15.2951 210.17C15.483 210.4 15.4512 210.742 15.2194 210.932C15.1194 211.016 14.9974 211.055 14.8778 211.055Z" fill="#13536C"/>
<path d="M32.6244 217.264L30.2356 214.914C28.7155 213.422 27.6639 211.519 27.2027 209.438L24.6847 198.043C24.3236 196.404 22.7132 195.361 21.0711 195.698C19.507 196.02 18.4529 197.488 18.6433 199.076L20.2171 212.049C20.3439 213.097 20.6807 214.111 21.2053 215.026L24.0332 219.963L32.6268 217.264H32.6244Z" fill="#58C2D9"/>
<path d="M35.4831 219.89C35.3611 219.89 35.2367 219.848 35.1342 219.763L29.8858 215.327C28.2583 213.73 27.1579 211.741 26.6748 209.555L24.1567 198.16C23.859 196.817 22.5243 195.952 21.1799 196.228C19.9014 196.492 19.023 197.713 19.1791 199.01L20.2405 210.369C20.4577 212.704 21.5825 214.633 22.7732 216.675L22.8513 216.81C23.0026 217.069 22.9147 217.398 22.6561 217.55C22.3975 217.699 22.0681 217.613 21.9168 217.355L21.8387 217.22C20.587 215.071 19.4036 213.041 19.1645 210.469L18.1055 199.125C17.8835 197.288 19.1376 195.544 20.9603 195.168C22.883 194.775 24.7862 196.011 25.2108 197.926L27.7288 209.321C28.168 211.304 29.1635 213.104 30.6129 214.528L35.8296 218.937C36.0565 219.13 36.0858 219.472 35.893 219.699C35.7857 219.826 35.6344 219.89 35.4807 219.89H35.4831Z" fill="#13536C"/>
<path d="M167.647 283.652H154.215V258.188H158.924L167.647 283.652Z" fill="#BAD3DA"/>
<path d="M167.647 284.192H154.215C153.917 284.192 153.676 283.95 153.676 283.652V258.19C153.676 257.892 153.917 257.65 154.215 257.65H158.924C159.156 257.65 159.361 257.797 159.434 258.017L168.157 283.479C168.213 283.645 168.186 283.826 168.086 283.967C167.984 284.109 167.82 284.194 167.647 284.194V284.192ZM154.754 283.11H166.891L158.539 258.73H154.754V283.11Z" fill="#13536C"/>
<path d="M154.214 258.188V283.649H92.4776L86.8608 268.119L84.7746 273.803C83.6717 276.805 81.6953 279.297 79.1943 281.043C76.6933 282.79 73.6751 283.784 70.4811 283.784C65.1937 283.784 60.2893 281.043 57.5175 276.539L34.6914 239.472L55.5777 226.397L67.9728 246.057L73.0114 233.373C76.1004 225.776 82.4859 220.012 90.35 217.708L93.256 216.853C102.687 214.091 112.415 212.464 122.228 212.01L123.568 211.946C133.613 211.475 143.029 216.824 147.782 225.691L158.921 258.188H154.212H154.214Z" fill="#BAD3DA"/>
<path d="M70.4813 284.326C64.9669 284.326 59.9479 281.522 57.0589 276.825L34.2328 239.758C34.0767 239.504 34.1548 239.174 34.4061 239.015L55.2924 225.94C55.5437 225.781 55.8755 225.857 56.0366 226.109L67.8656 244.87L72.5138 233.173C75.6833 225.378 82.1298 219.553 90.2013 217.188L93.1073 216.333C102.572 213.561 112.364 211.924 122.207 211.468L123.546 211.402C133.736 210.93 143.439 216.431 148.263 225.432C148.278 225.459 148.288 225.483 148.297 225.513L159.436 258.009C159.492 258.175 159.465 258.356 159.365 258.498C159.263 258.639 159.099 258.725 158.926 258.725H154.756V283.647C154.756 283.945 154.514 284.187 154.217 284.187H92.4802C92.2533 284.187 92.0508 284.045 91.9727 283.83L86.8585 269.695L85.2847 273.986C84.1672 277.032 82.1688 279.627 79.5068 281.483C76.8472 283.339 73.7289 284.321 70.4862 284.321L70.4813 284.326ZM35.4358 239.648L57.9812 276.258C60.6725 280.633 65.3476 283.246 70.4837 283.246C73.5044 283.246 76.4105 282.333 78.8871 280.601C81.3661 278.869 83.2278 276.456 84.2697 273.618L86.3559 267.934C86.4339 267.721 86.6364 267.579 86.8634 267.579C87.0903 267.579 87.2928 267.724 87.3709 267.936L92.8584 283.11H153.678V258.188C153.678 257.89 153.919 257.648 154.217 257.648H158.17L147.292 225.908C142.656 217.296 133.365 212.024 123.6 212.486L122.26 212.552C112.5 213.004 102.796 214.626 93.4123 217.376L90.5063 218.231C82.752 220.503 76.5593 226.096 73.5166 233.581L68.4781 246.26C68.4024 246.448 68.2292 246.58 68.0267 246.6C67.8193 246.619 67.6289 246.522 67.5191 246.351L55.4095 227.147L35.4333 239.651L35.4358 239.648Z" fill="#13536C"/>
<path d="M207.958 218.585V263.341C207.958 274.577 198.857 283.688 187.628 283.688H154.215V283.652H167.647L158.924 258.19H171.368C175.631 258.19 179.081 254.734 179.081 250.474V218.588H207.956L207.958 218.585Z" fill="#BAD3DA"/>
<path d="M187.628 284.228H154.215C153.917 284.228 153.676 283.986 153.676 283.688C153.676 283.39 153.917 283.11 154.215 283.11H166.893L158.414 258.363C158.358 258.197 158.385 258.016 158.485 257.875C158.587 257.733 158.751 257.648 158.924 257.648H171.368C175.323 257.648 178.542 254.428 178.542 250.471V218.585C178.542 218.287 178.783 218.045 179.081 218.045H207.956C208.253 218.045 208.495 218.287 208.495 218.585V263.341C208.495 274.858 199.133 284.228 187.623 284.228H187.628ZM168.047 283.146H187.628C198.54 283.146 207.419 274.262 207.419 263.341V219.127H179.623V250.474C179.623 255.027 175.921 258.73 171.371 258.73H159.683L168.047 283.149V283.146Z" fill="#13536C"/>
<path d="M167.647 283.652H154.215V258.188H158.924L167.647 283.652Z" fill="#BAD3DA"/>
<path d="M167.647 284.192H154.215C153.917 284.192 153.676 283.95 153.676 283.652V258.19C153.676 257.892 153.917 257.65 154.215 257.65H158.924C159.156 257.65 159.361 257.797 159.434 258.017L168.157 283.479C168.213 283.645 168.186 283.826 168.086 283.967C167.984 284.109 167.82 284.194 167.647 284.194V284.192ZM154.754 283.11H166.891L158.539 258.73H154.754V283.11Z" fill="#13536C"/>
<path d="M70.4813 284.326C64.9694 284.326 59.9503 281.522 57.0589 276.825L34.2328 239.756C34.0767 239.502 34.1548 239.172 34.4061 239.013L55.2924 225.94C55.5437 225.781 55.8755 225.857 56.0366 226.109L67.8656 244.868L72.5163 233.17C75.6882 225.373 82.1347 219.548 90.2013 217.186L93.1073 216.336C96.2134 215.427 99.3927 214.628 102.552 213.966C102.843 213.905 103.131 214.093 103.192 214.384C103.253 214.677 103.065 214.963 102.775 215.024C99.6416 215.681 96.4916 216.47 93.4123 217.371L90.5063 218.221C82.7544 220.491 76.5642 226.087 73.5191 233.573L68.4756 246.253C68.4 246.441 68.2267 246.573 68.0242 246.592C67.8193 246.612 67.6265 246.514 67.5167 246.343L55.4095 227.142L35.4333 239.643L57.9788 276.253C60.6725 280.628 65.3476 283.239 70.4813 283.239C76.6105 283.239 82.1518 279.37 84.2648 273.61L86.351 267.929C86.4291 267.716 86.6316 267.575 86.8585 267.575C87.0854 267.575 87.2879 267.719 87.366 267.931L92.8535 283.097C92.956 283.378 92.8096 283.689 92.529 283.791C92.2509 283.894 91.9385 283.747 91.8361 283.466L86.8536 269.692L85.2774 273.982C83.0082 280.164 77.0595 284.319 70.4789 284.319L70.4813 284.326Z" fill="#13536C"/>
<path d="M75.5056 258.54C75.325 258.54 75.1518 258.449 75.0493 258.288L65.8212 243.654C65.6627 243.4 65.7383 243.068 65.9896 242.909C66.2434 242.75 66.5752 242.826 66.7338 243.078L75.9618 257.712C76.1204 257.966 76.0448 258.298 75.7935 258.457C75.7032 258.513 75.6056 258.54 75.5056 258.54Z" fill="#13536C"/>
<path d="M86.8592 268.661C86.8031 268.661 86.7445 268.652 86.686 268.635C86.4029 268.539 86.2516 268.232 86.3468 267.951L92.3419 250.107C92.437 249.824 92.7445 249.672 93.025 249.768C93.3081 249.863 93.4594 250.171 93.3642 250.452L87.3692 268.295C87.2935 268.522 87.0837 268.664 86.8568 268.664L86.8592 268.661Z" fill="#13536C"/>
<path d="M115.739 213.607C115.129 215.83 113.233 217.586 110.808 217.911L107.955 218.29C104.71 218.722 101.721 216.441 101.289 213.19L100.696 208.712L100.443 206.809L99.957 203.165L114.568 201.218L115.534 208.485L115.902 211.238C116.01 212.054 115.951 212.855 115.741 213.607H115.739Z" fill="#58C2D9"/>
<path d="M107.168 218.881C103.974 218.881 101.187 216.512 100.756 213.261L99.4209 203.236C99.4014 203.094 99.4405 202.95 99.5283 202.835C99.6161 202.721 99.743 202.647 99.887 202.628L114.498 200.681C114.79 200.639 115.066 200.85 115.105 201.145L116.44 211.165C116.557 212.044 116.496 212.914 116.262 213.749C115.574 216.255 113.461 218.099 110.882 218.444L108.029 218.822C107.741 218.861 107.453 218.879 107.17 218.879L107.168 218.881ZM100.563 203.629L101.824 213.119C102.217 216.067 104.935 218.148 107.883 217.753L110.735 217.374C112.885 217.086 114.644 215.552 115.217 213.463C115.217 213.463 115.217 213.463 115.217 213.461C115.413 212.767 115.461 212.044 115.364 211.309L114.1 201.827L100.56 203.629H100.563Z" fill="#13536C"/>
<path d="M115.739 213.607C114.351 214.03 111.991 214.516 109.183 213.986C104.251 213.06 101.438 209.67 100.696 208.715L100.443 206.812L99.957 203.167L114.568 201.221L115.534 208.488L115.902 211.24C116.01 212.056 115.951 212.857 115.741 213.61L115.739 213.607Z" fill="#13536C"/>
<path d="M96.9585 199.494L108.248 195.053L120.441 196.196L117.813 176.47L94.416 179.591L96.9585 199.494Z" fill="#13536C"/>
<path d="M110.393 210.614C116.883 209.748 121.37 203.225 120.414 196.044C119.459 188.864 113.422 183.744 106.932 184.61C100.441 185.476 95.9545 191.999 96.9103 199.18C97.8662 206.36 103.903 211.48 110.393 210.614Z" fill="#58C2D9"/>
<path d="M108.954 211.248C106.182 211.248 103.488 210.236 101.233 208.324C98.5836 206.077 96.861 202.855 96.3803 199.247C95.8996 195.642 96.7195 192.078 98.6885 189.215C100.67 186.335 103.573 184.508 106.865 184.069C113.643 183.167 119.96 188.502 120.956 195.969C121.949 203.434 117.247 210.244 110.471 211.147C109.964 211.216 109.459 211.248 108.954 211.248ZM108.366 185.05C107.917 185.05 107.463 185.08 107.009 185.141C104.022 185.539 101.385 187.205 99.5791 189.828C97.7613 192.469 97.0074 195.764 97.4515 199.103C97.8955 202.442 99.4864 205.424 101.931 207.496C104.359 209.555 107.341 210.471 110.327 210.073C116.513 209.247 120.8 202.984 119.885 196.108C119.036 189.74 114.017 185.048 108.366 185.048V185.05Z" fill="#13536C"/>
<path d="M114.791 203.893C114.193 204.762 113.324 205.456 112.248 205.823C109.85 206.638 107.271 205.551 106.129 203.377L114.791 203.893Z" fill="#BAD3DA"/>
<path d="M195.808 287.878H92.3283C92.0306 287.878 91.7891 287.636 91.7891 287.338V283.821C91.7891 283.523 92.0306 283.281 92.3283 283.281H195.808C196.106 283.281 196.347 283.523 196.347 283.821V287.338C196.347 287.636 196.106 287.878 195.808 287.878ZM92.8675 286.796H195.266V284.358H92.8675V286.796Z" fill="#13536C"/>
<path d="M121.27 287.878C120.972 287.878 120.73 287.636 120.73 287.338V283.821C120.73 283.523 120.972 283.281 121.27 283.281C121.567 283.281 121.809 283.523 121.809 283.821V287.338C121.809 287.636 121.567 287.878 121.27 287.878Z" fill="#13536C"/>
<path d="M136.508 232.701H211.793L196.143 283.923H120.857L136.508 232.701Z" fill="#13536C"/>
<path d="M167.765 262.712C169.704 262.705 171.27 261.125 171.262 259.184C171.255 257.243 169.677 255.675 167.738 255.683C165.799 255.69 164.233 257.27 164.24 259.211C164.247 261.152 165.825 262.72 167.765 262.712Z" fill="#BAD3DA"/>
<path d="M106.668 159.235C106.492 159.235 106.324 159.149 106.221 158.998L92.1034 138.094H7.62127C7.32359 138.094 7.08203 137.852 7.08203 137.554V94.2195C7.08203 93.9215 7.32359 93.6797 7.62127 93.6797H106.668C106.965 93.6797 107.207 93.9215 107.207 94.2195V158.697C107.207 158.934 107.051 159.144 106.824 159.215C106.773 159.23 106.719 159.24 106.665 159.24L106.668 159.235ZM8.16295 137.012H92.3913C92.5694 137.012 92.7378 137.102 92.8378 137.251L106.128 156.931V94.7593H8.16295V137.012Z" fill="#13536C"/>
<path d="M43.7623 104.322H24.2912C23.9935 104.322 23.752 104.08 23.752 103.782C23.752 103.484 23.9935 103.243 24.2912 103.243H43.7623C44.06 103.243 44.3015 103.484 44.3015 103.782C44.3015 104.08 44.06 104.322 43.7623 104.322Z" fill="#13536C"/>
<path d="M89.0614 104.322H49.0431C48.7455 104.322 48.5039 104.08 48.5039 103.782C48.5039 103.484 48.7455 103.243 49.0431 103.243H89.0614C89.3591 103.243 89.6006 103.484 89.6006 103.782C89.6006 104.08 89.3591 104.322 89.0614 104.322Z" fill="#13536C"/>
<path d="M58.4901 115.949H24.2912C23.9935 115.949 23.752 115.707 23.752 115.409C23.752 115.111 23.9935 114.869 24.2912 114.869H58.4925C58.7902 114.869 59.0317 115.111 59.0317 115.409C59.0317 115.707 58.7902 115.949 58.4925 115.949H58.4901Z" fill="#13536C"/>
<path d="M89.0613 115.949H69.051C68.7533 115.949 68.5117 115.707 68.5117 115.409C68.5117 115.111 68.7533 114.87 69.051 114.87H89.0613C89.359 114.87 89.6005 115.111 89.6005 115.409C89.6005 115.707 89.359 115.949 89.0613 115.949Z" fill="#13536C"/>
<path d="M43.7623 127.578H24.2912C23.9935 127.578 23.752 127.337 23.752 127.039C23.752 126.741 23.9935 126.499 24.2912 126.499H43.7623C44.06 126.499 44.3015 126.741 44.3015 127.039C44.3015 127.337 44.06 127.578 43.7623 127.578Z" fill="#13536C"/>
<path d="M89.0614 127.578H49.0431C48.7455 127.578 48.5039 127.336 48.5039 127.038C48.5039 126.74 48.7455 126.499 49.0431 126.499H89.0614C89.3591 126.499 89.6006 126.74 89.6006 127.038C89.6006 127.336 89.3591 127.578 89.0614 127.578Z" fill="#13536C"/>
<path d="M239.289 89.2631H137.822C137.525 89.2631 137.283 89.0213 137.283 88.7233V36.0188C137.283 35.7208 137.525 35.479 137.822 35.479H216.822C217.12 35.479 217.361 35.7208 217.361 36.0188V73.2297L239.592 88.2739C239.79 88.4058 239.875 88.6525 239.807 88.8796C239.736 89.1068 239.528 89.2631 239.289 89.2631ZM138.364 88.181H237.528L216.522 73.965C216.373 73.8648 216.285 73.6963 216.285 73.518V36.5586H138.367V88.181H138.364Z" fill="#13536C"/>
<path d="M167.682 76.1021H153.195C152.898 76.1021 152.656 75.8603 152.656 75.5623C152.656 75.2643 152.898 75.0225 153.195 75.0225H167.682C167.979 75.0225 168.221 75.2643 168.221 75.5623C168.221 75.8603 167.979 76.1021 167.682 76.1021Z" fill="#13536C"/>
<path d="M201.383 76.1021H171.608C171.31 76.1021 171.068 75.8603 171.068 75.5623C171.068 75.2643 171.31 75.0225 171.608 75.0225H201.383C201.68 75.0225 201.922 75.2643 201.922 75.5623C201.922 75.8603 201.68 76.1021 201.383 76.1021Z" fill="#13536C"/>
<path d="M178.64 63.7303H153.194C152.896 63.7303 152.654 63.4885 152.654 63.1905C152.654 62.8925 152.896 62.6506 153.194 62.6506H178.64C178.938 62.6506 179.179 62.8925 179.179 63.1905C179.179 63.4885 178.938 63.7303 178.64 63.7303Z" fill="#13536C"/>
<path d="M201.383 63.7305H186.496C186.199 63.7305 185.957 63.4887 185.957 63.1907C185.957 62.8927 186.199 62.6509 186.496 62.6509H201.383C201.68 62.6509 201.922 62.8927 201.922 63.1907C201.922 63.4887 201.68 63.7305 201.383 63.7305Z" fill="#13536C"/>
<path d="M167.682 51.3609H153.195C152.898 51.3609 152.656 51.1191 152.656 50.8211C152.656 50.5231 152.898 50.2812 153.195 50.2812H167.682C167.979 50.2812 168.221 50.5231 168.221 50.8211C168.221 51.1191 167.979 51.3609 167.682 51.3609Z" fill="#13536C"/>
<path d="M201.383 51.3609H171.608C171.31 51.3609 171.068 51.1191 171.068 50.8211C171.068 50.5231 171.31 50.2812 171.608 50.2812H201.383C201.68 50.2812 201.922 50.5231 201.922 50.8211C201.922 51.1191 201.68 51.3609 201.383 51.3609Z" fill="#13536C"/>
<path d="M387.745 384.437C387.567 384.437 387.401 384.349 387.301 384.205C387.201 384.059 387.177 383.87 387.24 383.704C387.338 383.445 389.724 377.332 395.324 373.448C400.923 369.564 407.48 369.479 407.758 369.476H407.763C407.941 369.476 408.107 369.564 408.207 369.708C408.309 369.855 408.331 370.043 408.268 370.209C408.17 370.468 405.784 376.582 400.184 380.465C394.584 384.349 388.028 384.437 387.752 384.437H387.748H387.745ZM406.911 370.605C404.979 370.763 400.113 371.442 395.939 374.337C391.756 377.236 389.416 381.557 388.592 383.311C390.522 383.152 395.392 382.473 399.564 379.579C403.739 376.684 406.084 372.361 406.911 370.607V370.605Z" fill="#13536C"/>
<path d="M387.676 407.007C387.378 407.007 387.137 406.765 387.137 406.467V384.103C387.137 383.805 387.378 383.563 387.676 383.563C387.974 383.563 388.215 383.805 388.215 384.103V406.467C388.215 406.765 387.974 407.007 387.676 407.007Z" fill="#13536C"/>
<path d="M357.906 358.912C363.505 368.89 373.563 373.873 373.563 373.873C373.563 373.873 374.546 362.681 368.946 352.703C363.347 342.724 353.289 337.741 353.289 337.741C353.289 337.741 352.306 348.934 357.906 358.912Z" fill="#DFE3E8"/>
<path d="M373.564 374.415C373.481 374.415 373.4 374.395 373.324 374.359C373.222 374.308 363.05 369.185 357.435 359.178C351.818 349.17 352.741 337.807 352.753 337.695C352.767 337.517 352.87 337.358 353.026 337.27C353.182 337.185 353.37 337.177 353.529 337.258C353.631 337.309 363.804 342.431 369.418 352.439C375.035 362.446 374.113 373.809 374.1 373.922C374.086 374.1 373.983 374.259 373.827 374.347C373.744 374.393 373.654 374.415 373.564 374.415ZM353.785 338.626C353.695 341.386 353.797 350.487 358.377 358.648C362.962 366.818 370.67 371.635 373.068 372.991C373.158 370.231 373.056 361.13 368.476 352.969C363.891 344.798 356.183 339.984 353.785 338.626Z" fill="#13536C"/>
<path d="M373.563 404.711C373.265 404.711 373.023 404.469 373.023 404.171V373.875C373.023 373.577 373.265 373.335 373.563 373.335C373.86 373.335 374.102 373.577 374.102 373.875V404.171C374.102 404.469 373.86 404.711 373.563 404.711Z" fill="#13536C"/>
<path d="M401.132 350.428C393.293 364.4 379.204 371.381 379.204 371.381C379.204 371.381 377.828 355.707 385.67 341.733C393.51 327.761 407.598 320.78 407.598 320.78C407.598 320.78 408.974 336.454 401.132 350.428Z" fill="#58C2D9"/>
<path d="M379.204 371.921C379.114 371.921 379.021 371.897 378.938 371.853C378.782 371.765 378.68 371.606 378.665 371.428C378.65 371.269 377.365 355.424 385.197 341.466C393.029 327.509 407.215 320.367 407.357 320.296C407.518 320.218 407.706 320.223 407.862 320.308C408.018 320.396 408.118 320.555 408.135 320.733C408.15 320.892 409.436 336.737 401.603 350.695C393.771 364.652 379.585 371.796 379.443 371.865C379.368 371.901 379.285 371.921 379.204 371.921ZM407.106 321.657C404.131 323.303 392.79 330.147 386.139 341.999C379.483 353.86 379.551 367.109 379.695 370.507C382.669 368.86 394.01 362.016 400.662 350.165C407.318 338.303 407.25 325.054 407.106 321.657Z" fill="#13536C"/>
<path d="M379.205 407.361C378.908 407.361 378.666 407.119 378.666 406.821V371.381C378.666 371.083 378.908 370.841 379.205 370.841C379.503 370.841 379.744 371.083 379.744 371.381V406.821C379.744 407.119 379.503 407.361 379.205 407.361Z" fill="#13536C"/>
<path d="M355.189 402.845H408.035V424.496C408.035 436.917 397.962 447 385.555 447H377.669C365.262 447 355.189 436.917 355.189 424.496V402.845Z" fill="#DFE3E8"/>
<path d="M355.189 424.496C355.189 426.067 355.351 427.598 355.658 429.079C362.939 429.057 370.386 426.062 376.561 417.61C383.069 408.705 389.698 409.672 396.455 411.755C399.978 412.842 404.287 413.392 408.035 413.666V402.845H355.189V424.496Z" fill="#13536C"/>
</g>
<defs>
<clipPath id="clip0_90_1011">
<rect width="445" height="447" fill="white"/>
</clipPath>
</defs>
</svg>
