<svg width="30" height="30" viewBox="0 0 30 30" fill="none" xmlns="http://www.w3.org/2000/svg">
<g id="Social icon">
<circle id="Ellipse 3" cx="15.001" cy="15" r="15" fill="white"/>
<g id="linkedin">
<path d="M8.22251 22.0588H11.3066V12.0745H8.22251V22.0588Z" fill="black"/>
<path d="M7.94214 8.88696C7.94214 9.87134 8.73653 10.6682 9.76457 10.6682C10.7459 10.6682 11.5403 9.87134 11.5403 8.88696C11.5403 7.90259 10.7459 7.05884 9.76457 7.05884C8.73653 7.05884 7.94214 7.90259 7.94214 8.88696Z" fill="black"/>
<path d="M19.8113 22.0588H22.9421V16.5745C22.9421 13.9026 22.3347 11.7932 19.2038 11.7932C17.7085 11.7932 16.6805 12.637 16.2599 13.4338H16.2132V12.0745H13.2692V22.0588H16.3534V17.137C16.3534 15.8245 16.587 14.5588 18.2225 14.5588C19.8113 14.5588 19.8113 16.0588 19.8113 17.1838V22.0588Z" fill="black"/>
</g>
</g>
</svg>
