<svg width="30" height="30" viewBox="0 0 30 30" fill="none" xmlns="http://www.w3.org/2000/svg">
<g id="Social icon">
<circle id="Ellipse 13" cx="15.001" cy="15" r="15" fill="white"/>
<path id="twitter" d="M21.9971 11.4915C22.6864 10.9745 23.3068 10.3541 23.7894 9.63028C23.1689 9.90602 22.4451 10.1128 21.7213 10.1818C22.4796 9.73369 23.0311 9.04435 23.3068 8.18267C22.6175 8.59628 21.8247 8.90648 21.032 9.07881C20.3427 8.35501 19.4121 7.94141 18.378 7.94141C16.379 7.94141 14.759 9.56135 14.759 11.5604C14.759 11.8362 14.7935 12.1119 14.8624 12.3876C11.8638 12.2153 9.17538 10.7677 7.3831 8.59628C7.0729 9.11328 6.90056 9.73369 6.90056 10.423C6.90056 11.6638 7.52097 12.7668 8.52051 13.4216C7.93457 13.3872 7.34863 13.2493 6.8661 12.9736V13.008C6.8661 14.7659 8.1069 16.2135 9.76132 16.5581C9.48558 16.6271 9.14091 16.696 8.83071 16.696C8.58944 16.696 8.38264 16.6615 8.14137 16.6271C8.58944 18.0747 9.93365 19.1087 11.5191 19.1432C10.2783 20.1082 8.72731 20.6942 7.03843 20.6942C6.72823 20.6942 6.45249 20.6597 6.17676 20.6252C7.76224 21.6592 9.65792 22.2452 11.7259 22.2452C18.378 22.2452 21.9971 16.7649 21.9971 11.974C21.9971 11.8017 21.9971 11.6638 21.9971 11.4915Z" fill="black"/>
</g>
</svg>
